PathFileType	4	(X/Y/Z)	walk-thru1-5-TP.trc
DataRate	CameraRate	NumFrames	NumMarkers	Units	OrigDataRate	OrigDataStartFrame	OrigNumFrames
120.00	120.00	       4	60	mm	120.00	228	       454
Frame#	Time	Top.Head			Front.Head			Rear.Head			Jaw			C7			R.Clavicle			L.Clavicle			R.Shoulder			L.Shoulder			R.Scapula			L.Scapula			R.Scap.Inf			R.Biceps.Lateral			R.Elbow			R.Elbow.Medial			R.Forearm			R.Ulna			R.Radius			R.Wrist			R.Thumb.M1			R.Thumb.M2			R.Thumb.M3			R.Finger3.M1			R.Finger3.M2			R.Finger3.M3			L.Biceps.Lateral			L.Elbow			L.Elbow.Medial			L.Forearm			L.Ulna			L.Radius			L.Wrist			L.Thumb.M1			L.Thumb.M2			L.Thumb.M3			L.Finger3.M1			L.Finger3.M2			L.Finger3.M3			V.Sacral			R.ASIS			L.ASIS			R.Thigh			R.Thigh.Front			R.Knee			R.Knee.Medial			R.Shank			R.Ankle			R.Ankle.Medial			R.Heel			R.Toe			R.MedFoot			L.Thigh			L.Knee			L.Knee.Medial			L.Shank			L.Ankle			L.Ankle.Medial			L.Heel			L.Toe			L.MedFoot			V_mid_ASIS			V_R_Knee_JC			V_L_Knee_JC			V_R_Elbow_JC			V_L_Elbow_JC			V_R_Ankle_JC			V_L_Ankle_JC			V_R_Wrist_JC			V_L_Wrist_JC			V_R_ScaTrpz_1stMC_JC			V_R_1stMC_1stPP_JC			V_R_1stPP_1stDP_JC			V_R_LunCap_3rdMC_JC			V_R_3rdMC_3rdPP_JC			V_R_3rdPP_3rdMP_JC			V_R_3rdMP_3rdDP_JC			V_L_ScaTrpz_1stMC_JC			V_L_1stMC_1stPP_JC			V_L_1stPP_1stDP_JC			V_L_LunCap_3rdMC_JC			V_L_3rdMC_3rdPP_JC			V_L_3rdPP_3rdMP_JC			V_L_3rdMP_3rdPP_JC			V_ROOT_JC			V_R_Hip_JC			V_L_Hip_JC			V_R_GlenHum_JC			V_L_GlenHum_JC			V_ForeHead_Ctr			V_Vertex			V_Sagit_Lambdoid_Suture			V_R_FrontoTemp			V_L_FrontoTemporal			V_R_ParietalOccip			V_L_ParietalOcciptal			V_R_Temporal			V_L_Temporal			V_mid_FrontRearHead			V_mid_RLGlenHumCtrs			V_C7_vert			V_C1_vert			V_Mid_Hip			
		X1	Y1	Z1	X2	Y2	Z2	X3	Y3	Z3	X4	Y4	Z4	X5	Y5	Z5	X6	Y6	Z6	X7	Y7	Z7	X8	Y8	Z8	X9	Y9	Z9	X10	Y10	Z10	X11	Y11	Z11	X12	Y12	Z12	X13	Y13	Z13	X14	Y14	Z14	X15	Y15	Z15	X16	Y16	Z16	X17	Y17	Z17	X18	Y18	Z18	X19	Y19	Z19	X20	Y20	Z20	X21	Y21	Z21	X22	Y22	Z22	X23	Y23	Z23	X24	Y24	Z24	X25	Y25	Z25	X26	Y26	Z26	X27	Y27	Z27	X28	Y28	Z28	X29	Y29	Z29	X30	Y30	Z30	X31	Y31	Z31	X32	Y32	Z32	X33	Y33	Z33	X34	Y34	Z34	X35	Y35	Z35	X36	Y36	Z36	X37	Y37	Z37	X38	Y38	Z38	X39	Y39	Z39	X40	Y40	Z40	X41	Y41	Z41	X42	Y42	Z42	X43	Y43	Z43	X44	Y44	Z44	X45	Y45	Z45	X46	Y46	Z46	X47	Y47	Z47	X48	Y48	Z48	X49	Y49	Z49	X50	Y50	Z50	X51	Y51	Z51	X52	Y52	Z52	X53	Y53	Z53	X54	Y54	Z54	X55	Y55	Z55	X56	Y56	Z56	X57	Y57	Z57	X58	Y58	Z58	X59	Y59	Z59	X60	Y60	Z60	

228	1.892	229.08238	-62.53128	1553.99768	128.34778	-59.29874	1453.80139	341.64368	-61.42151	1474.01685	158.42719	-44.88044	1312.89050	358.63632	-41.67526	1363.84985	273.16504	69.55217	1275.33960	260.36426	-145.52429	1282.51855	322.86035	146.70891	1270.97339	309.27255	-239.26169	1284.02002	406.31638	45.54201	1287.06030	406.19501	-138.68532	1289.34509	451.49374	30.09041	1206.05688	283.95825	197.64264	1132.26892	289.98532	223.14424	969.08496	322.96194	155.34065	948.23273	200.44101	208.67018	912.41052	206.98399	231.35492	822.47180	134.00954	185.03061	794.88721	131.08496	223.10188	759.48737	97.72214	184.58905	751.77612	77.46883	168.03720	721.96411	59.40126	155.83894	685.01398	93.71993	234.73820	691.52869	80.59511	210.96170	643.71844	86.38825	185.91814	610.37451	335.97363	-299.63550	1139.80115	393.37042	-310.75800	999.66168	411.70099	-230.05693	993.80023	308.25815	-292.28610	935.09167	317.28937	-326.98508	845.36920	264.40521	-271.90430	806.39850	254.43214	-318.17542	778.72021	231.06129	-276.50562	770.60236	219.52618	-251.89519	734.03680	219.83943	-250.45337	678.02252	225.48491	-315.67700	695.61157	220.68402	-306.25391	655.80908	227.29642	-278.28122	618.55573	467.55365	-51.54664	899.48108	278.26434	109.93072	963.17120	279.94327	-207.63498	944.53491	299.43234	132.64256	570.94122	244.99437	55.22713	477.30258	299.31491	92.36657	430.53204	299.01755	-20.10479	427.05402	336.58975	40.00011	260.23700	452.89996	55.01424	67.51500	436.73706	-37.70305	82.56694	514.47504	-0.02050	43.62150	312.12595	32.90855	38.92164	368.25208	-13.07866	63.39848	212.36763	-236.43665	578.86115	144.45039	-211.59032	455.69809	123.84690	-85.81059	445.29761	114.64285	-155.05009	266.90720	162.86092	-175.80196	68.92079	145.22585	-88.16480	88.48182	216.93208	-122.17524	43.36808	14.10627	-145.90750	55.55284	68.59731	-110.09071	69.42638																																																																																																																															
229	1.900	224.25876	-63.07903	1553.67944	123.54567	-58.29000	1452.89551	337.26526	-61.60180	1472.71667	153.62326	-44.03047	1312.24866	353.58786	-42.65720	1362.80273	267.87866	68.33987	1274.74597	254.28972	-146.60201	1281.75867	317.51242	144.60674	1270.07385	303.34109	-240.90509	1283.31470	400.25006	44.13946	1285.65466	400.38773	-140.14035	1287.84583	445.93643	27.80703	1204.67053	278.79123	196.53607	1131.61609	285.38770	222.46410	969.20209	317.51291	153.80687	947.34399	195.31700	207.30507	911.86884	201.36552	230.30780	822.07367	128.33871	183.37634	795.06915	125.38010	222.01566	759.04364	91.44987	183.81433	752.34406	71.83773	166.89021	721.42340	52.60468	155.55479	685.59625	87.35193	233.67268	691.26056	75.32500	209.10370	643.73639	79.22102	183.84125	611.36182	329.58237	-299.46851	1139.05481	387.39801	-311.56668	998.55750	410.07550	-231.48560	992.65631	301.89355	-294.23721	934.76306	310.30499	-328.35828	843.46973	258.24716	-270.88812	805.04852	247.81821	-318.53281	778.40820	224.33444	-277.12341	770.10638	213.69992	-250.55023	733.54053	216.04007	-248.89380	677.96729	219.36502	-314.55573	693.59668	215.59717	-303.49115	654.16351	225.03448	-274.48416	617.50690	461.45242	-52.91071	898.53491	270.77435	108.85508	961.86517	274.29639	-208.02565	943.48541	294.68140	132.23996	570.61298	241.23483	55.59624	476.48962	295.48462	92.50929	429.96307	295.05856	-20.58004	426.30527	334.35226	39.68209	259.71964	452.78589	54.98709	67.55468	436.54590	-37.77303	82.75406	514.44977	-0.07577	44.14032	312.27380	32.88674	38.73864	368.32443	-13.29137	63.50433	206.89662	-236.57137	577.97980	137.72804	-211.66840	455.59494	116.82245	-85.51649	445.80994	109.07830	-153.72412	264.97552	157.39233	-175.71732	68.15664	142.21968	-86.13404	86.90430	213.92616	-122.35718	43.55325	11.23689	-144.30066	51.04044	65.54527	-108.91278	68.39294																																																																																																																															
230	1.908	218.68291	-63.98780	1553.20459	117.64333	-59.18189	1452.62000	331.57819	-64.30683	1471.69165	148.00356	-45.80709	1311.25879	347.98447	-44.09171	1361.15125	263.07794	67.38355	1274.53027	248.93741	-148.46210	1281.13464	311.77576	143.27831	1269.28381	297.72476	-241.92241	1282.35754	395.30765	42.33805	1285.19666	394.47275	-141.53575	1287.45667	440.98941	26.30741	1203.60583	274.14490	195.04816	1131.23975	280.57373	220.70181	968.34229	312.10724	152.64145	946.30328	189.85072	206.32585	911.28650	196.00186	230.77921	821.19177	123.09274	183.11845	794.74469	119.28132	220.43150	758.96857	85.85586	182.33864	752.47028	64.68179	165.17003	721.81305	46.95110	153.75920	685.61053	81.44936	232.28560	691.35663	69.01254	206.93306	643.50623	72.64903	181.98280	611.50519	324.42038	-301.58450	1138.78931	380.15161	-313.72113	997.78302	404.30276	-233.90154	991.71411	295.76096	-295.30347	933.77362	303.86957	-329.18668	842.26697	251.86777	-270.92715	803.78662	241.16084	-318.78159	777.54126	218.42451	-277.86694	769.08221	207.33220	-251.74324	732.95886	210.97768	-246.71228	676.51514	213.63286	-314.14197	692.01270	211.03679	-301.32916	652.91321	220.44316	-270.90997	618.06702	455.14700	-54.00254	897.28699	264.77957	106.97282	961.13013	267.69366	-209.02840	942.53540	289.26279	132.14621	569.87512	237.16649	54.80124	474.06277	291.96957	91.73668	429.12634	290.97275	-21.28024	425.72021	332.50467	39.78806	259.46436	452.87646	55.28246	67.89148	435.98224	-37.24967	82.80563	514.40582	0.09151	44.64906	312.20819	32.75048	38.65190	368.04529	-13.25534	63.34076	200.10646	-237.33919	576.94067	130.71506	-211.69481	455.34418	110.28278	-86.03867	446.35062	104.46639	-153.68077	263.51617	154.71658	-174.24478	67.24639	141.71707	-84.80132	87.22501	212.82713	-123.23762	43.96568	10.43232	-140.22035	48.02022	64.72067	-106.70236	66.75259																																																																																																																															
231	1.917	213.77655	-66.46713	1551.93469	112.46460	-60.78104	1451.76636	325.75916	-64.49648	1470.48755	142.12773	-46.86787	1311.36792	342.46716	-43.97152	1361.41882	257.65021	66.40150	1273.63660	243.37430	-149.20943	1280.02551	307.40417	142.13954	1268.89661	290.90707	-243.19328	1282.42798	390.17636	40.92012	1284.00525	388.57593	-142.63161	1285.46057	435.21875	25.12958	1202.17285	269.42557	193.48351	1130.33386	275.08496	219.69583	967.89063	307.04715	152.15833	945.79218	184.86800	205.23851	911.35498	190.53198	229.22670	820.84222	117.88194	180.98520	794.37897	114.29283	218.98300	758.99213	80.17692	180.95851	752.21216	60.17171	163.23746	722.25397	41.09998	152.64124	685.56903	75.07763	231.41129	691.26398	62.35522	207.21301	644.18506	67.04729	180.12691	611.23724	316.85681	-303.99692	1138.17822	373.90805	-315.31790	996.53278	397.76981	-235.49989	991.06335	288.88217	-296.14377	933.21295	297.26202	-329.07834	841.61517	245.58623	-272.01764	803.53369	234.53242	-319.19305	776.31732	213.85889	-275.59625	767.51343	202.44244	-249.54807	732.25073	204.99878	-246.76979	676.91248	207.08624	-312.19714	690.20087	205.32507	-297.77899	651.30701	215.77428	-267.08704	618.01776	449.04294	-55.12900	896.51056	259.31464	106.27897	960.19116	261.08298	-210.35274	941.04651	283.74701	130.93886	568.72321	232.48654	53.17780	472.84879	287.40417	91.48104	428.52863	286.24408	-21.73063	424.26584	329.89737	38.47433	258.56052	452.76651	54.36427	68.60999	435.39261	-36.95869	83.36080	514.54547	0.50484	45.18969	311.86038	32.97108	38.62073	368.28235	-12.65519	63.55291	192.81042	-237.14053	576.37128	123.15779	-213.00470	454.95926	103.01595	-88.02436	445.77832	100.29612	-152.81879	262.02118	155.31477	-173.88284	67.35806	142.05307	-84.34946	87.16419	213.44283	-122.85301	43.53065	11.62042	-136.73486	45.47444	65.52287	-104.37776	66.35542																																																																																																																															
